<svg width="69" height="60" viewBox="0 0 69 60" fill="none" xmlns="http://www.w3.org/2000/svg">
<path d="M68.0597 7.10308C65.5287 8.30769 62.8319 9.10615 60.0201 9.49385C62.9127 7.62 65.1204 4.67538 66.1583 1.12615C63.4614 2.87077 60.4838 4.10308 57.3105 4.79077C54.7498 1.83231 51.1001 0 47.1186 0C39.3938 0 33.1749 6.80308 33.1749 15.1431C33.1749 16.3431 33.2684 17.4969 33.4981 18.5954C21.8982 17.9815 11.634 11.9492 4.73866 2.76C3.53485 5.02615 2.82873 7.62 2.82873 10.4123C2.82873 15.6554 5.31716 20.3031 9.02642 22.9938C6.7847 22.9477 4.58552 22.2415 2.72239 21.1292C2.72239 21.1754 2.72239 21.2354 2.72239 21.2954C2.72239 28.6523 7.55888 34.7631 13.9012 36.1708C12.7654 36.5077 11.5276 36.6692 10.243 36.6692C9.3497 36.6692 8.44791 36.6138 7.60142 36.4108C9.40925 42.4062 14.5393 46.8138 20.6391 46.9569C15.8919 50.9862 9.8644 53.4138 3.33918 53.4138C2.19493 53.4138 1.09746 53.3585 0 53.2062C6.18067 57.5308 13.5056 60 21.4048 60C47.0803 60 61.1176 36.9231 61.1176 16.92C61.1176 16.2508 61.0963 15.6046 61.0666 14.9631C63.8357 12.8308 66.1625 10.1677 68.0597 7.10308Z" fill="#03A9F4"/>
</svg>
